# xmcd CD database file
# Copyright (C) 1997 Ti Kan
# 
# Track frame offsets:
#     182
#     17870
#     31347
#     45412
#     61735
#     80587
#     94837
#     110012
#     130602
#     146105
#     168297
#     183072
#     201860
# 
# Disc length: 2914 seconds
# 
# Revision: 1
# Processed by: cddbd v1.4b41PL1 Copyright (c) Steve Scherf et al.
# Submitted via: DiscPlay 4.0.4
# 
DISCID=a70b600d
DTITLE=Diversos - Ax  Music, O Som Da Bahia
DYEAR=1900
DGENRE=
TTITLE0=Canto Do Pescador
TTITLE1=Swing Da Cor
TTITLE2=Tch  Do Tch , Tch  Tch , O
TTITLE3=Baby
TTITLE4=Paz E Amor
TTITLE5=Prazer
TTITLE6=Me Sinto S 
TTITLE7=Estrela Primeira (Amor Eu Fico)
TTITLE8=Luminosa Fonte  (Vida)
TTITLE9=Cidad o (Remix)
TTITLE10=Levada De Arrast o
TTITLE11=Brother John
TTITLE12=Pou Pourri - Samba Reggae
EXTD=
EXTT0=Banda Cheiro De Amor\n
EXTT1=Grupo Ax \n
EXTT2=Luiz Caldas\n
EXTT3=Sarajane\n
EXTT4=Cid Guerreiro\n
EXTT5=Banda Biss\n
EXTT6=Paral guas\n
EXTT7=Beijo\n
EXTT8=Moraes Moreira\n
EXTT9=Elba Ramalho\n
EXTT10=Carlos Neto\n
EXTT11=Rosa Maria\n
EXTT12=Margareth Menezes\nFara  Divindades do Egito\nBrilho De Beleza\nDepo
EXTT12=is Que O Il  Passar\nDeus Dop Fogo e Da Justi a\nUma Hist ria de If \
PLAYORDER=
